<mxfile host="app.diagrams.net" modified="2023-11-18T23:36:54.552Z" agent="Mozilla/5.0 (Windows NT 10.0; Win64; x64) AppleWebKit/537.36 (KHTML, like Gecko) Chrome/119.0.0.0 Safari/537.36 Edg/119.0.0.0" etag="KzhkAJvO_xblwrJ64KSE" version="22.1.3" type="device">
  <diagram name="Web Schema" id="P90nHuBgNQ2RbXBAFjI4">
    <mxGraphModel dx="724" dy="384" grid="1" gridSize="10" guides="1" tooltips="1" connect="1" arrows="1" fold="1" page="1" pageScale="1" pageWidth="1169" pageHeight="827" background="#FFFFFF" math="0" shadow="0">
      <root>
        <mxCell id="0" />
        <mxCell id="1" parent="0" />
        <mxCell id="E-sPa0USYCmaXWzYvlUG-34" value="&lt;div style=&quot;font-size: 20px;&quot;&gt;&lt;font style=&quot;font-size: 20px;&quot;&gt;«WebApp»&lt;/font&gt;&lt;/div&gt;&lt;div style=&quot;font-size: 20px;&quot;&gt;&lt;font style=&quot;font-size: 20px;&quot;&gt;Приложение для работы с контентом&lt;font style=&quot;font-size: 20px;&quot;&gt;&lt;br&gt;&lt;/font&gt;&lt;/font&gt;&lt;/div&gt;" style="html=1;whiteSpace=wrap;align=left;verticalAlign=top;fontStyle=1" parent="1" vertex="1">
          <mxGeometry x="200" y="120" width="520" height="640" as="geometry" />
        </mxCell>
        <mxCell id="E-sPa0USYCmaXWzYvlUG-1" value="Пользователь" style="shape=umlActor;verticalLabelPosition=bottom;verticalAlign=top;html=1;outlineConnect=0;" parent="1" vertex="1">
          <mxGeometry x="110" y="420" width="30" height="60" as="geometry" />
        </mxCell>
        <mxCell id="E-sPa0USYCmaXWzYvlUG-4" value="Разработчик" style="shape=umlActor;verticalLabelPosition=bottom;verticalAlign=top;html=1;outlineConnect=0;" parent="1" vertex="1">
          <mxGeometry x="780" y="420" width="30" height="60" as="geometry" />
        </mxCell>
        <mxCell id="E-sPa0USYCmaXWzYvlUG-29" value="" style="endArrow=none;html=1;rounded=0;entryX=0;entryY=0.5;entryDx=0;entryDy=0;exitX=1;exitY=0.3333333333333333;exitDx=0;exitDy=0;exitPerimeter=0;" parent="1" source="E-sPa0USYCmaXWzYvlUG-1" target="E-sPa0USYCmaXWzYvlUG-35" edge="1">
          <mxGeometry width="50" height="50" relative="1" as="geometry">
            <mxPoint x="30" y="310" as="sourcePoint" />
            <mxPoint x="160" y="180" as="targetPoint" />
          </mxGeometry>
        </mxCell>
        <mxCell id="E-sPa0USYCmaXWzYvlUG-30" value="" style="endArrow=none;html=1;rounded=0;entryX=0;entryY=0.5;entryDx=0;entryDy=0;exitX=1;exitY=0.3333333333333333;exitDx=0;exitDy=0;exitPerimeter=0;" parent="1" source="E-sPa0USYCmaXWzYvlUG-1" target="E-sPa0USYCmaXWzYvlUG-36" edge="1">
          <mxGeometry width="50" height="50" relative="1" as="geometry">
            <mxPoint x="90" y="360" as="sourcePoint" />
            <mxPoint x="220" y="300" as="targetPoint" />
          </mxGeometry>
        </mxCell>
        <mxCell id="E-sPa0USYCmaXWzYvlUG-31" value="" style="endArrow=none;html=1;rounded=0;entryX=0;entryY=0.5;entryDx=0;entryDy=0;exitX=1;exitY=0.3333333333333333;exitDx=0;exitDy=0;exitPerimeter=0;" parent="1" source="E-sPa0USYCmaXWzYvlUG-1" target="E-sPa0USYCmaXWzYvlUG-37" edge="1">
          <mxGeometry width="50" height="50" relative="1" as="geometry">
            <mxPoint x="90" y="360" as="sourcePoint" />
            <mxPoint x="220" y="380" as="targetPoint" />
          </mxGeometry>
        </mxCell>
        <mxCell id="E-sPa0USYCmaXWzYvlUG-32" value="" style="endArrow=none;html=1;rounded=0;entryX=0;entryY=0.5;entryDx=0;entryDy=0;exitX=1;exitY=0.3333333333333333;exitDx=0;exitDy=0;exitPerimeter=0;" parent="1" source="E-sPa0USYCmaXWzYvlUG-1" target="E-sPa0USYCmaXWzYvlUG-38" edge="1">
          <mxGeometry width="50" height="50" relative="1" as="geometry">
            <mxPoint x="90" y="360" as="sourcePoint" />
            <mxPoint x="220" y="460" as="targetPoint" />
          </mxGeometry>
        </mxCell>
        <mxCell id="E-sPa0USYCmaXWzYvlUG-35" value="&lt;b&gt;Сохранение контента&lt;br&gt;&lt;/b&gt;" style="ellipse;whiteSpace=wrap;html=1;" parent="1" vertex="1">
          <mxGeometry x="230" y="200" width="140" height="70" as="geometry" />
        </mxCell>
        <mxCell id="E-sPa0USYCmaXWzYvlUG-36" value="&lt;div&gt;&lt;b&gt;Просмотр&lt;/b&gt;&lt;/div&gt;&lt;div&gt;&lt;b&gt;сохраненного&lt;/b&gt;&lt;/div&gt;&lt;div&gt;&lt;b&gt;контента&lt;/b&gt;&lt;/div&gt;" style="ellipse;whiteSpace=wrap;html=1;" parent="1" vertex="1">
          <mxGeometry x="230" y="360" width="140" height="70" as="geometry" />
        </mxCell>
        <mxCell id="E-sPa0USYCmaXWzYvlUG-37" value="&lt;div&gt;&lt;b&gt;Поиск&lt;/b&gt;&lt;/div&gt;&lt;div&gt;&lt;b&gt;сохраненного&lt;/b&gt;&lt;/div&gt;&lt;div&gt;&lt;b&gt;контента&lt;/b&gt;&lt;/div&gt;&lt;div&gt;&lt;b&gt;по названию&lt;/b&gt;&lt;/div&gt;" style="ellipse;whiteSpace=wrap;html=1;" parent="1" vertex="1">
          <mxGeometry x="230" y="441" width="140" height="70" as="geometry" />
        </mxCell>
        <mxCell id="E-sPa0USYCmaXWzYvlUG-38" value="&lt;div&gt;Настройка&lt;/div&gt;&lt;div&gt;сохраненного&lt;/div&gt;&lt;div&gt;контента&lt;/div&gt;" style="ellipse;whiteSpace=wrap;html=1;fontStyle=1" parent="1" vertex="1">
          <mxGeometry x="230" y="521" width="140" height="70" as="geometry" />
        </mxCell>
        <mxCell id="E-sPa0USYCmaXWzYvlUG-47" value="&lt;div&gt;Передача&lt;/div&gt;&lt;div&gt;идентификатора&lt;/div&gt;&lt;div&gt;элемента-&lt;span style=&quot;background-color: initial;&quot;&gt;контейнера&lt;/span&gt;&lt;/div&gt;&lt;div&gt;&lt;span style=&quot;background-color: initial;&quot;&gt;для запуска&lt;/span&gt;&lt;/div&gt;&lt;div&gt;&lt;span style=&quot;background-color: initial;&quot;&gt;приложений&lt;/span&gt;&lt;/div&gt;" style="ellipse;whiteSpace=wrap;html=1;" parent="1" vertex="1">
          <mxGeometry x="560" y="355" width="140" height="80" as="geometry" />
        </mxCell>
        <mxCell id="E-sPa0USYCmaXWzYvlUG-48" value="" style="endArrow=none;html=1;rounded=0;entryX=0;entryY=0.3333333333333333;entryDx=0;entryDy=0;exitX=1;exitY=0.5;exitDx=0;exitDy=0;entryPerimeter=0;" parent="1" source="E-sPa0USYCmaXWzYvlUG-47" target="E-sPa0USYCmaXWzYvlUG-4" edge="1">
          <mxGeometry width="50" height="50" relative="1" as="geometry">
            <mxPoint x="755" y="305" as="sourcePoint" />
            <mxPoint x="895" y="250" as="targetPoint" />
          </mxGeometry>
        </mxCell>
        <mxCell id="BIx4hbJbcL7Ia_YeTyFI-1" value="&lt;div&gt;Передача&lt;/div&gt;&lt;div&gt;пути к файлу&lt;/div&gt;&lt;div&gt;с предварительными&lt;/div&gt;&lt;div&gt;настройками&lt;/div&gt;&lt;div&gt;приложения&lt;/div&gt;" style="ellipse;whiteSpace=wrap;html=1;" parent="1" vertex="1">
          <mxGeometry x="560" y="450" width="140" height="80" as="geometry" />
        </mxCell>
        <mxCell id="BIx4hbJbcL7Ia_YeTyFI-3" value="" style="endArrow=none;html=1;rounded=0;entryX=0;entryY=0.3333333333333333;entryDx=0;entryDy=0;entryPerimeter=0;exitX=1;exitY=0.5;exitDx=0;exitDy=0;" parent="1" source="BIx4hbJbcL7Ia_YeTyFI-1" target="E-sPa0USYCmaXWzYvlUG-4" edge="1">
          <mxGeometry width="50" height="50" relative="1" as="geometry">
            <mxPoint x="740" y="510" as="sourcePoint" />
            <mxPoint x="790" y="460" as="targetPoint" />
          </mxGeometry>
        </mxCell>
        <mxCell id="B4Yi07T1psB6GCRgObwh-1" value="&lt;div&gt;&lt;b&gt;Удаление&lt;/b&gt;&lt;/div&gt;&lt;div&gt;&lt;b&gt;сохраненного&lt;/b&gt;&lt;/div&gt;&lt;div&gt;&lt;b&gt;контента&lt;br&gt;&lt;/b&gt;&lt;/div&gt;" style="ellipse;whiteSpace=wrap;html=1;" vertex="1" parent="1">
          <mxGeometry x="230" y="601" width="140" height="70" as="geometry" />
        </mxCell>
        <mxCell id="B4Yi07T1psB6GCRgObwh-2" value="" style="endArrow=none;html=1;rounded=0;entryX=0;entryY=0.5;entryDx=0;entryDy=0;exitX=1;exitY=0.3333333333333333;exitDx=0;exitDy=0;exitPerimeter=0;" edge="1" parent="1" source="E-sPa0USYCmaXWzYvlUG-1" target="B4Yi07T1psB6GCRgObwh-1">
          <mxGeometry width="50" height="50" relative="1" as="geometry">
            <mxPoint x="110" y="555" as="sourcePoint" />
            <mxPoint x="200" y="580" as="targetPoint" />
          </mxGeometry>
        </mxCell>
        <mxCell id="B4Yi07T1psB6GCRgObwh-3" value="&lt;b&gt;Просмотр&lt;br&gt;списка названий&lt;br&gt;сохраненного&lt;br&gt;контента&lt;br&gt;&lt;/b&gt;" style="ellipse;whiteSpace=wrap;html=1;" vertex="1" parent="1">
          <mxGeometry x="230" y="280" width="140" height="70" as="geometry" />
        </mxCell>
        <mxCell id="B4Yi07T1psB6GCRgObwh-4" value="" style="endArrow=none;html=1;rounded=0;entryX=0;entryY=0.5;entryDx=0;entryDy=0;exitX=1;exitY=0.3333333333333333;exitDx=0;exitDy=0;exitPerimeter=0;" edge="1" parent="1" source="E-sPa0USYCmaXWzYvlUG-1" target="B4Yi07T1psB6GCRgObwh-3">
          <mxGeometry width="50" height="50" relative="1" as="geometry">
            <mxPoint x="90" y="450" as="sourcePoint" />
            <mxPoint x="180" y="245" as="targetPoint" />
          </mxGeometry>
        </mxCell>
        <mxCell id="B4Yi07T1psB6GCRgObwh-5" value="&lt;div&gt;&lt;span&gt;Переименование&lt;/span&gt;&lt;/div&gt;&lt;div&gt;&lt;span&gt;сохраненного&lt;/span&gt;&lt;/div&gt;&lt;div&gt;&lt;span&gt;контента&lt;/span&gt;&lt;/div&gt;" style="ellipse;whiteSpace=wrap;html=1;fontStyle=0" vertex="1" parent="1">
          <mxGeometry x="400" y="480" width="140" height="70" as="geometry" />
        </mxCell>
        <mxCell id="B4Yi07T1psB6GCRgObwh-6" value="&lt;div&gt;&lt;span&gt;Изменение&lt;/span&gt;&lt;/div&gt;&lt;div&gt;&lt;span&gt;цвета&amp;nbsp;&lt;/span&gt;&lt;span style=&quot;background-color: initial;&quot;&gt;фона&lt;/span&gt;&lt;/div&gt;&lt;div&gt;&lt;span style=&quot;background-color: initial;&quot;&gt;названия&lt;/span&gt;&lt;/div&gt;&lt;div&gt;&lt;span&gt;сохраненного&lt;/span&gt;&lt;/div&gt;&lt;div&gt;&lt;span&gt;контента&lt;/span&gt;&lt;/div&gt;" style="ellipse;whiteSpace=wrap;html=1;fontStyle=0" vertex="1" parent="1">
          <mxGeometry x="400" y="560" width="140" height="80" as="geometry" />
        </mxCell>
        <mxCell id="B4Yi07T1psB6GCRgObwh-7" value="&lt;div&gt;&lt;b&gt;Группировка&lt;/b&gt;&lt;/div&gt;&lt;div&gt;&lt;b&gt;сохраненного&lt;/b&gt;&lt;/div&gt;&lt;div&gt;&lt;b&gt;контента по цвету&lt;br&gt;&lt;/b&gt;&lt;/div&gt;" style="ellipse;whiteSpace=wrap;html=1;" vertex="1" parent="1">
          <mxGeometry x="230" y="680" width="140" height="70" as="geometry" />
        </mxCell>
        <mxCell id="B4Yi07T1psB6GCRgObwh-8" value="" style="endArrow=none;html=1;rounded=0;entryX=0;entryY=0.5;entryDx=0;entryDy=0;exitX=1;exitY=0.3333333333333333;exitDx=0;exitDy=0;exitPerimeter=0;" edge="1" parent="1" source="E-sPa0USYCmaXWzYvlUG-1" target="B4Yi07T1psB6GCRgObwh-7">
          <mxGeometry width="50" height="50" relative="1" as="geometry">
            <mxPoint x="90" y="530" as="sourcePoint" />
            <mxPoint x="180" y="726" as="targetPoint" />
          </mxGeometry>
        </mxCell>
        <mxCell id="B4Yi07T1psB6GCRgObwh-11" value="" style="endArrow=block;endSize=16;endFill=0;html=1;rounded=0;exitX=0;exitY=0.5;exitDx=0;exitDy=0;entryX=1;entryY=0.5;entryDx=0;entryDy=0;" edge="1" parent="1" source="B4Yi07T1psB6GCRgObwh-6" target="E-sPa0USYCmaXWzYvlUG-38">
          <mxGeometry width="160" relative="1" as="geometry">
            <mxPoint x="420" y="650" as="sourcePoint" />
            <mxPoint x="580" y="650" as="targetPoint" />
          </mxGeometry>
        </mxCell>
        <mxCell id="B4Yi07T1psB6GCRgObwh-12" value="" style="endArrow=block;endSize=16;endFill=0;html=1;rounded=0;exitX=0;exitY=0.5;exitDx=0;exitDy=0;entryX=1;entryY=0.5;entryDx=0;entryDy=0;" edge="1" parent="1" source="B4Yi07T1psB6GCRgObwh-5" target="E-sPa0USYCmaXWzYvlUG-38">
          <mxGeometry width="160" relative="1" as="geometry">
            <mxPoint x="400" y="550" as="sourcePoint" />
            <mxPoint x="370" y="511" as="targetPoint" />
          </mxGeometry>
        </mxCell>
      </root>
    </mxGraphModel>
  </diagram>
</mxfile>
